<svg width="191" height="186" viewBox="0 0 191 186" fill="none" xmlns="http://www.w3.org/2000/svg">
<g clip-path="url(#clip0_52_27)">
<g clip-path="url(#clip1_52_27)">
<path d="M109.508 45.6806H137.355L94.8029 76.9687L93.5514 75.2466L92.2999 77.0463L49.7481 45.6806H77.2816C76.6558 30.6623 71.4946 14.7054 69.3019 8.1349C33.9463 13.7668 10.0122 30.0366 5.0061 34.104V122.024L45.3677 180.845H144.238L185.226 122.024V34.104C163.011 20.3373 140.484 11.5766 117.643 7.82202C115.453 14.3925 110.447 30.6623 109.508 45.6806ZM34.104 105.754L14.7054 73.2141H75.4043L91.0484 105.754H34.104ZM153.937 105.754H96.6802L112.637 73.2141H173.023L153.937 105.754Z" fill="white"/>
<path d="M82.6005 50.6867H66.6436L93.5514 70.7111L120.146 50.6867H102.625V47.8708C102.625 33.4782 108.883 14.7054 111.386 6.88336C105.128 6.2576 99.4961 5.63184 93.2385 5.63184C86.668 5.63184 80.7233 6.2576 74.7785 6.88336C77.2816 14.7054 82.6005 33.4782 82.6005 47.8708V50.6867Z" fill="white"/>
<path d="M189.293 30.3495C158.005 10.3251 125.936 0 93.3962 0C38.0163 0 2.27026 29.0979 0.705858 30.3495L0 31.2881V123.901L42.2389 185.851H147.054L190.232 123.901V30.9752L189.293 30.3495ZM93.5514 5.63186C99.809 5.63186 105.128 6.25762 111.386 6.88338C108.883 14.7054 102.625 33.4783 102.625 47.8708V50.6867H120.146L93.5514 70.7111L66.6436 50.6867H82.6006V47.8708C82.6006 33.4783 77.4393 14.7054 74.9362 6.88338C80.8785 6.25762 86.9809 5.63186 93.5514 5.63186ZM185.226 122.024L144.238 180.845H45.3677L5.00609 122.024V34.104C10.0122 30.0366 33.9463 13.7668 69.3044 8.1349C71.4945 14.7054 76.6583 30.6623 77.2841 45.6806H49.7506L92.3024 76.9687L93.5539 75.2466L94.8054 77.0463L137.357 45.6806H109.508C110.447 30.6623 115.453 14.3925 117.643 7.82202C140.484 11.5766 163.011 20.3373 185.226 34.104V122.024Z" fill="#FD6744"/>
<path d="M14.7054 73.2141L34.104 105.754H91.0484L75.4043 73.2141H14.7054ZM37.2328 100.748L24.4047 78.2202H71.6497L82.2877 100.748H37.2328Z" fill="#FD6744"/>
<path d="M96.6802 105.754H153.937L173.023 73.2141H112.637L96.6802 105.754ZM163.324 78.2202L150.496 100.748H105.754L116.079 78.2202H163.324Z" fill="#FD6744"/>
<path d="M71.9492 78H24L37 101H82.5L71.9492 78Z" fill="#FD6744"/>
<path d="M163.5 78H116L105.5 101H150.5L163.5 78Z" fill="#FD6744"/>
</g>
</g>
<defs>
<clipPath id="clip0_52_27">
<rect width="190.232" height="185.851" fill="white"/>
</clipPath>
<clipPath id="clip1_52_27">
<rect width="190.232" height="185.851" fill="white"/>
</clipPath>
</defs>
</svg>
